<?xml version="1.0" encoding="UTF-8" standalone="no"?>
<svg
   xmlns:dc="http://purl.org/dc/elements/1.1/"
   xmlns:cc="http://creativecommons.org/ns#"
   xmlns:rdf="http://www.w3.org/1999/02/22-rdf-syntax-ns#"
   xmlns:svg="http://www.w3.org/2000/svg"
   xmlns="http://www.w3.org/2000/svg"
   xmlns:xlink="http://www.w3.org/1999/xlink"
   id="svg2"
   viewBox="-100 -1005 1152 1422"
   height="100%"
   width="100%"
   version="1.1">
  <metadata
     id="metadata270">
    <rdf:RDF>
      <cc:Work
         rdf:about="">
        <dc:format>image/svg+xml</dc:format>
        <dc:type
           rdf:resource="http://purl.org/dc/dcmitype/StillImage" />
        <dc:title>Comparison of 1962 US standard atmosphere graph with altitudes of various objects</dc:title>
      </cc:Work>
    </rdf:RDF>
  </metadata>
  <title
     id="title4">Comparison of 1962 US standard atmosphere graph with altitudes of various objects</title>
  <desc
     id="desc6">Comparison of the 1962 US standard atmosphere graph of geometric altitude against density, pressure, the speed of sound and temperature with approximate altitudes of various objects, by CMG Lee. Data is based on graph at http://www.centennialofflight.gov/essay/Theories_of_Flight/atmosphere/TH1G1.htm .</desc>
  <defs
     id="defs8">
    <linearGradient
       y2="1"
       x2="0"
       y1="0"
       x1="0"
       id="layer">
      <stop
         id="stop11"
         stop-opacity="0"
         stop-color="#cc00cc"
         offset="0%" />
      <stop
         id="stop13"
         stop-opacity="0.3"
         stop-color="#cc00cc"
         offset="50%" />
      <stop
         id="stop15"
         stop-opacity="0"
         stop-color="#cc00cc"
         offset="100%" />
    </linearGradient>
    <linearGradient
       gradientUnits="userSpaceOnUse"
       gradientTransform="scale(0.77044694,1.2979479)"
       y2="-665.84064"
       x2="1233.0505"
       y1="-769.67651"
       x1="1233.0505"
       id="aurora">
      <stop
         id="stop18"
         stop-opacity="0"
         stop-color="#9900cc"
         offset="0%" />
      <stop
         id="stop20"
         stop-opacity="0.5"
         stop-color="#9900cc"
         offset="100%" />
    </linearGradient>
    <g
       id="grid_x">
      <path
         id="path23"
         d="M 10,0 V -1000 M 20,0 V -1000 M 30,0 V -1000 M 40,0 v -1000" />
      <path
         style="stroke-opacity:0.5"
         id="path25"
         d="M 50,0 V -1000" />
    </g>
    <g
       id="grid_x5">
      <use
         height="1152"
         width="1152"
         y="0"
         x="0"
         id="use28"
         xlink:href="#grid_x" />
      <use
         height="1152"
         width="1152"
         y="0"
         x="0"
         id="use30"
         transform="translate(50,0)"
         xlink:href="#grid_x" />
      <use
         height="1152"
         width="1152"
         y="0"
         x="0"
         id="use32"
         transform="translate(100,0)"
         xlink:href="#grid_x" />
      <use
         height="1152"
         width="1152"
         y="0"
         x="0"
         id="use34"
         transform="translate(150,0)"
         xlink:href="#grid_x" />
      <use
         height="1152"
         width="1152"
         y="0"
         x="0"
         id="use36"
         transform="translate(200,0)"
         xlink:href="#grid_x" />
      <path
         style="stroke-opacity:0.5"
         id="path38"
         d="M 250,10 V -1000" />
    </g>
    <g
       id="grid_y">
      <path
         id="path41"
         d="M 0,-10 H 750 M 0,-20 H 750 M 0,-30 H 750 M 0,-40 h 750" />
      <path
         style="stroke-opacity:0.5"
         id="path43"
         d="M 0,-50 H 750" />
    </g>
    <g
       id="grid_y4">
      <use
         height="1152"
         width="1152"
         y="0"
         x="0"
         id="use46"
         xlink:href="#grid_y" />
      <use
         height="1152"
         width="1152"
         y="0"
         x="0"
         id="use48"
         transform="translate(0,-50)"
         xlink:href="#grid_y" />
      <use
         height="1152"
         width="1152"
         y="0"
         x="0"
         id="use50"
         transform="translate(0,-100)"
         xlink:href="#grid_y" />
      <use
         height="1152"
         width="1152"
         y="0"
         x="0"
         id="use52"
         transform="translate(0,-150)"
         xlink:href="#grid_y" />
      <path
         style="stroke-opacity:0.5"
         id="path54"
         d="M 0,-100 H 750 M 0,-200 h 750" />
    </g>
    <g
       style="stroke:#000000;stroke-opacity:0.2"
       id="grid">
      <use
         height="1152"
         width="1152"
         y="0"
         x="0"
         id="use57"
         xlink:href="#grid_x5" />
      <use
         height="1152"
         width="1152"
         y="0"
         x="0"
         id="use59"
         transform="translate(250,0)"
         xlink:href="#grid_x5" />
      <use
         height="1152"
         width="1152"
         y="0"
         x="0"
         id="use61"
         transform="translate(500,0)"
         xlink:href="#grid_x5" />
      <use
         height="1152"
         width="1152"
         y="0"
         x="0"
         id="use63"
         xlink:href="#grid_y4" />
      <use
         height="1152"
         width="1152"
         y="0"
         x="0"
         id="use65"
         transform="translate(0,-200)"
         xlink:href="#grid_y4" />
      <use
         height="1152"
         width="1152"
         y="0"
         x="0"
         id="use67"
         transform="translate(0,-400)"
         xlink:href="#grid_y4" />
      <use
         height="1152"
         width="1152"
         y="0"
         x="0"
         id="use69"
         transform="translate(0,-600)"
         xlink:href="#grid_y4" />
      <use
         height="1152"
         width="1152"
         y="0"
         x="0"
         id="use71"
         transform="translate(0,-800)"
         xlink:href="#grid_y4" />
    </g>
    <path
       style="stroke:none"
       d="M -10,20 0,0 10,20"
       id="arrow_up" />
    <use
       height="1152"
       width="1152"
       y="0"
       x="0"
       transform="scale(1,-1)"
       xlink:href="#arrow_up"
       id="arrow_down" />
    <g
       id="arrow_up_down">
      <use
         height="1152"
         width="1152"
         y="0"
         x="0"
         id="use76"
         xlink:href="#arrow_down" />
      <use
         height="1152"
         width="1152"
         y="0"
         x="0"
         id="use78"
         xlink:href="#arrow_up" />
      <path
         id="path80"
         d="M -20,0 H 20" />
    </g>
    <linearGradient
       gradientUnits="userSpaceOnUse"
       y2="-600"
       x2="750"
       y1="-900"
       x1="750"
       id="linearGradient3247"
       xlink:href="#layer" />
    <linearGradient
       gradientUnits="userSpaceOnUse"
       gradientTransform="scale(1.2247449,0.81649658)"
       y2="-244.94897"
       x2="612.37244"
       y1="-489.89795"
       x1="612.37244"
       id="linearGradient3249"
       xlink:href="#layer" />
  </defs>
  <g
     transform="translate(-0.74327537,-80.016929)"
     style="font-size:32px;letter-spacing:-1;text-anchor:middle;fill:#000000;stroke:#000000;stroke-linejoin:round;font-family:sans-serif"
     id="g82"
     letter-spacing="-1"
     font-size="32">
    <use
       transform="translate(-2.1903251,80.5636)"
       height="1152"
       width="1152"
       y="0"
       x="0"
       id="use84"
       xlink:href="#grid" />
    <rect
       style="fill:none;stroke-width:2"
       id="rect86"
       height="1000"
       width="1050"
       y="-919.4364"
       x="-2.1903248" />
    <g
       style="fill:#000000;stroke:#000000;stroke-width:5"
       id="g88"
       transform="translate(747.80968,80.5636)">
      <path
         id="path90"
         d="M 0,0 V -1000" />
      <use
         height="1152"
         width="1152"
         y="0"
         x="0"
         id="use92"
         xlink:href="#arrow_down" />
      <use
         height="1152"
         width="1152"
         y="0"
         x="0"
         id="use94"
         transform="translate(0,-115)"
         xlink:href="#arrow_up_down" />
      <use
         height="1152"
         width="1152"
         y="0"
         x="0"
         id="use96"
         transform="translate(0,-480)"
         xlink:href="#arrow_up_down" />
      <use
         height="1152"
         width="1152"
         y="0"
         x="0"
         id="use98"
         transform="translate(0,-800)"
         xlink:href="#arrow_up_down" />
      <g
         style="text-anchor:start;stroke:none"
         id="g100">
        <text
           id="text102"
           y="-40"
           x="10">Troposphere</text>
        <text
           id="text104"
           y="-100"
           x="20">Tropopause</text>
        <text
           id="text106"
           y="-310"
           x="10">Stratosphere</text>
        <text
           id="text108"
           y="-470"
           x="20">Stratopause</text>
        <text
           id="text110"
           y="-575"
           x="10">Mesosphere</text>
        <text
           id="text112"
           y="-790"
           x="20">Mesopause</text>
        <text
           id="text114"
           y="-910"
           x="10">Thermosphere</text>
      </g>
    </g>
    <g
       transform="translate(-2.1903251,80.5636)"
       style="text-anchor:middle;stroke:none"
       id="g116">
      <g
         style="text-anchor:end;fill:#000000"
         id="g118">
        <text
           id="text120"
           y="0"
           x="-10">0</text>
        <text
           id="text122"
           y="-90"
           x="-10">10</text>
        <text
           id="text124"
           y="-190"
           x="-10">20</text>
        <text
           id="text126"
           y="-290"
           x="-10">30</text>
        <text
           id="text128"
           y="-390"
           x="-10">40</text>
        <text
           id="text130"
           y="-490"
           x="-10">50</text>
        <text
           id="text132"
           y="-590"
           x="-10">60</text>
        <text
           id="text134"
           y="-690"
           x="-10">70</text>
        <text
           id="text136"
           y="-790"
           x="-10">80</text>
        <text
           id="text138"
           y="-890"
           x="-10">90</text>
        <text
           id="text140"
           y="-980"
           x="-10">100</text>
        <text
           style="text-anchor:middle"
           id="text142"
           y="0"
           x="0"
           transform="matrix(0,-1,1,0,-70,-500)">Geometric altitude (km)</text>
      </g>
      <g
         style="fill:#ff0000;stroke:#ff0000"
         id="g144">
        <text
           style="text-anchor:end;stroke:none"
           id="text146"
           y="-650"
           x="400">Temperature</text>
        <text
           style="text-anchor:start;stroke:none"
           id="text148"
           y="384.52692"
           x="267.69553">Temperature (K)</text>
        <text
           style="stroke:none"
           id="text150"
           y="356"
           x="250">200</text>
        <text
           style="stroke:none"
           id="text152"
           y="356"
           x="500">250</text>
        <text
           style="stroke:none"
           id="text154"
           y="356"
           x="750">300</text>
        <path
           style="fill:none"
           id="path156"
           d="M 690,0 335,-110 v -90 l 55,-120 210,-165 v -40 l -70,-80 -200,-110 -132,-85 v -102 l 62,-98" />
        <text
           style="font-size:32px;font-family:sans-serif;letter-spacing:-1;text-anchor:middle;fill:#ff0000;stroke:none"
           id="text150-1"
           y="356.00769"
           x="-0.14884253">150</text>
      </g>
      <g
         style="fill:#0000ff;stroke:#0000ff"
         id="g158">
        <text
           style="text-anchor:start;stroke:none"
           id="text160"
           y="-800"
           x="400">Speed of sound</text>
        <text
           style="letter-spacing:-2;text-anchor:start;stroke:none"
           id="text162"
           letter-spacing="-2"
           y="277.75"
           x="243.5">Speed of sound (m/s)</text>
        <text
           style="stroke:none"
           id="text164"
           y="250"
           x="250">250</text>
        <text
           style="stroke:none"
           id="text166"
           y="250"
           x="500">300</text>
        <text
           style="stroke:none"
           id="text168"
           y="250"
           x="750">350</text>
        <path
           style="fill:none"
           id="path170"
           d="M 700,0 475,-112 v -88 l 35,-110 135,-175 v -40 l -57,-95 -100,-80 -108,-105 v -100 l 55,-95" />
        <text
           style="font-size:32px;letter-spacing:-1;text-anchor:middle;fill:#0000ff;stroke:none;font-family:sans-serif"
           id="text164-3"
           y="250.04037"
           x="-0.16852637">200</text>
      </g>
      <g
         style="fill:#006600;stroke:#006600"
         id="g172">
        <text
           style="text-anchor:end;stroke:none"
           id="text174"
           y="-60"
           x="150">Pressure</text>
        <text
           style="text-anchor:start;stroke:none"
           id="text176"
           y="172.25"
           x="262">Pressure (kN/m²)</text>
        <g
           id="g3352">
          <text
             x="250"
             y="145"
             id="text178"
             style="stroke:none">50</text>
        </g>
        <text
           style="stroke:none"
           id="text180"
           y="145"
           x="500">100</text>
        <text
           style="stroke:none"
           id="text182"
           y="145"
           x="750">150</text>
        <path
           style="fill:none"
           id="path184"
           d="M 530,0 Q 163,-55 80,-130 -3,-205 1,-370" />
        <text
           style="font-size:32px;letter-spacing:-1;text-anchor:middle;fill:#006600;stroke:none;font-family:sans-serif"
           id="text178-9"
           y="145.00131"
           x="-0.16738196">0</text>
      </g>
      <g
         style="fill:#cc6600;stroke:#cc6600"
         id="g186">
        <text
           style="text-anchor:start;stroke:none"
           id="text188"
           y="-160"
           x="110">Density</text>
        <text
           style="text-anchor:start;stroke:none"
           id="text190"
           y="64.949753"
           x="277.86307">Density (kg/m³)</text>
        <text
           style="stroke:none"
           id="text192"
           y="40"
           x="250">0.5</text>
        <text
           style="stroke:none"
           id="text194"
           y="40"
           x="500">1</text>
        <text
           style="stroke:none"
           id="text196"
           y="40"
           x="750">1.5</text>
        <path
           style="fill:none"
           id="path198"
           d="M 640,0 C 300,-50 160,-110 100,-150 40,-190 10,-220 1,-370" />
        <text
           style="font-size:32px;letter-spacing:-1;text-anchor:middle;fill:#cc6600;stroke:none;font-family:sans-serif"
           id="text192-9"
           y="39.976948"
           x="-0.13529272">0</text>
      </g>
      <g
         style="font-size:28px;font-style:italic;text-anchor:end;fill:#9900cc;stroke:#9900cc"
         id="g200"
         font-size="28"
         font-style="italic">
        <text
           style="stroke:none"
           id="text202"
           y="-970"
           x="1030">Kármán line</text>
        <path
           id="path204"
           d="m 750,-1000 h 300" />
        <text
           style="text-anchor:start;stroke:none"
           id="text206"
           y="-740"
           x="760">ionosphere D layer</text>
        <rect
           style="fill:url(#linearGradient3247);stroke:none"
           id="rect208"
           height="300"
           width="300"
           y="-900"
           x="750" />
        <text
           style="stroke:none"
           id="text210"
           y="-860"
           x="940">aurora</text>
        <path
           style="fill:url(#aurora);stroke:none"
           id="path212"
           d="m 950,-999 v 129 c 40,-20 40,20 80,0 v -129" />
        <text
           style="stroke:none"
           id="text214"
           y="-650"
           x="990">meteor</text>
        <ellipse
           id="ellipse216"
           ry="3"
           rx="3"
           cy="-650"
           cx="1010" />
        <path
           id="path218"
           d="m 1010,-650 20,-20" />
        <text
           style="stroke:none"
           id="text220"
           y="-410"
           x="1040">weather balloon</text>
        <ellipse
           id="ellipse222"
           ry="3"
           rx="3"
           cy="-400"
           cx="1020" />
        <text
           style="text-anchor:start;stroke:none"
           id="text224"
           y="-270"
           x="760">ozone layer</text>
        <rect
           style="fill:url(#linearGradient3249);stroke:none"
           id="rect226"
           height="200"
           width="300"
           y="-400"
           x="750" />
        <text
           style="stroke:none"
           id="text228"
           y="-350"
           x="1040">NASA X-43A</text>
        <path
           style="fill:none"
           id="path230"
           d="m 1015,-340 h 5 l 3,-2" />
        <text
           style="stroke:none"
           id="text232"
           y="-225"
           x="1040">SR-71 Blackbird</text>
        <path
           style="fill:none"
           id="path234"
           d="m 1010,-259 h 10 l 3,-3" />
        <text
           style="stroke:none"
           id="text236"
           y="-175"
           x="990">Concorde</text>
        <path
           style="fill:none"
           id="path238"
           d="m 1005,-180 h 15 l 4,-4" />
        <text
           style="stroke:none"
           id="text240"
           y="-130"
           x="1040">typical airliner</text>
        <path
           style="fill:none"
           id="path242"
           d="m 1000,-115 h 20 l 5,-5" />
        <text
           style="stroke:none"
           id="text244"
           y="-70"
           x="1005">Mt Everest</text>
        <path
           style="stroke:none"
           id="path246"
           d="M 990,0 1015,-88.48 1040,0" />
        <text
           style="stroke:none"
           id="text248"
           y="-8"
           x="980">Burj Khalifa</text>
        <path
           id="path250"
           d="M 985,0 V -8.28" />
        <path
           style="stroke:none"
           id="path252"
           d="m 983,0 2,-8.28 2,8.28" />
      </g>
    </g>
    <a
       transform="translate(-2.1903251,80.5636)"
       id="a3296">
      <path
         style="fill:none;stroke:#000000;stroke-width:1px;stroke-linecap:butt;stroke-linejoin:miter;stroke-opacity:1"
         d="m 99,1077.5 0,23 749.7933,0 2.56607,0 0,-23"
         id="path3269"
         transform="translate(-99.256725,-1002.9831)" />
    </a>
    <path
       id="path3269-8"
       d="m 247.70732,154.71961 0,23.50914 250.13869,0 0,-23.50914"
       style="font-size:32px;letter-spacing:-1;text-anchor:middle;fill:none;stroke:#000000;stroke-width:0.58295071px;stroke-linecap:butt;stroke-linejoin:miter;stroke-opacity:1;font-family:sans-serif" />
    <a
       id="a3296-3"
       style="font-size:32px;letter-spacing:-1;text-anchor:middle;fill:#000000;stroke:#000000;stroke-linejoin:round;font-family:sans-serif"
       transform="translate(-2.1913751,185.56627)">
      <path
         style="fill:none;stroke:#000000;stroke-width:1px;stroke-linecap:butt;stroke-linejoin:miter;stroke-opacity:1"
         d="m 99,1077.5 0,23 749.7933,0 2.56607,0 0,-23"
         id="path3269-85"
         transform="translate(-99.256725,-1002.9831)" />
    </a>
    <path
       id="path3269-8-2"
       d="m 247.70627,259.72227 0,23.50914 250.1387,0 0,-23.50914"
       style="font-size:32px;letter-spacing:-1;text-anchor:middle;fill:none;stroke:#000000;stroke-width:0.58295071px;stroke-linecap:butt;stroke-linejoin:miter;stroke-opacity:1;font-family:sans-serif" />
    <a
       id="a3466">
      <path
         style="font-size:32px;letter-spacing:-1;text-anchor:middle;fill:none;stroke:#000000;stroke-width:1px;stroke-linecap:butt;stroke-linejoin:miter;stroke-opacity:1;font-family:sans-serif"
         d="m -2.45326,365.0801 0,23 749.7933,0 2.56607,0 0,-23"
         id="path3269-85-3" />
    </a>
    <path
       id="path3269-8-2-1"
       d="m 247.70113,364.7193 0,23.50914 250.13869,0 0,-23.50914"
       style="font-size:32px;letter-spacing:-1;text-anchor:middle;fill:none;stroke:#000000;stroke-width:0.58295071px;stroke-linecap:butt;stroke-linejoin:miter;stroke-opacity:1;font-family:sans-serif" />
    <a
       id="a3296-3-4-2"
       style="font-size:32px;letter-spacing:-1;text-anchor:middle;fill:#000000;stroke:#000000;stroke-linejoin:round;font-family:sans-serif"
       transform="translate(-2.1993888,395.56142)">
      <path
         style="fill:none;stroke:#000000;stroke-width:1px;stroke-linecap:butt;stroke-linejoin:miter;stroke-opacity:1"
         d="m 99,1077.5 0,23 749.7933,0 2.56607,0 0,-23"
         id="path3269-85-3-8"
         transform="translate(-99.256725,-1002.9831)" />
    </a>
    <path
       id="path3269-8-2-1-4"
       d="m 247.69827,469.71752 0,23.50914 250.13869,0 0,-23.50914"
       style="font-size:32px;letter-spacing:-1;text-anchor:middle;fill:none;stroke:#000000;stroke-width:0.58295071px;stroke-linecap:butt;stroke-linejoin:miter;stroke-opacity:1;font-family:sans-serif" />
  </g>
</svg>
