# 3ds Max Wavefront OBJ Exporter v0.94b - (c)2007 guruware
# File Created: 13.02.2014 13:36:06

mtllib Axis.mtl

#
# object Box02
#

v  -0.100000 -0.100000 0.000000
v  -0.100000 0.100000 0.000000
v  0.100000 0.100000 0.000000
v  0.100000 -0.100000 0.000000
v  -0.100000 -0.100000 0.200000
v  0.100000 -0.100000 0.200000
v  0.100000 0.100000 0.200000
v  -0.100000 0.100000 0.200000
v  -0.100000 -0.000000 0.100000
v  -0.100000 0.000000 -0.100000
v  0.100000 0.000000 -0.100000
v  0.100000 -0.000000 0.100000
v  0.100000 2.600000 0.100000
v  -0.100000 2.600000 0.100000
v  0.100000 2.600000 -0.100000
v  -0.100000 2.600000 -0.100000
v  0.150000 2.600000 0.150001
v  -0.150000 2.600000 0.150001
v  0.150000 2.600000 -0.149999
v  -0.150000 2.600000 -0.149999
v  0.000000 3.000000 0.000001
v  -0.000000 0.100000 0.100000
v  0.000000 0.100000 -0.100000
v  0.000000 -0.100000 -0.100000
v  -0.000000 -0.100000 0.100000
v  1.600000 -0.100000 0.100000
v  1.600000 0.100000 0.100000
v  1.600000 -0.100000 -0.100000
v  1.600000 0.100000 -0.100000
v  1.600000 -0.150000 0.150001
v  1.600000 0.150000 0.150001
v  1.600000 -0.150000 -0.149999
v  1.600000 0.150000 -0.149999
v  2.000000 -0.000000 0.000001
v  -0.100000 -0.100000 -0.000000
v  0.100000 -0.100000 -0.000000
v  0.100000 -0.100000 1.600000
v  -0.100000 -0.100000 1.600000
v  0.100000 0.100000 1.600000
v  -0.100000 0.100000 1.600000
v  0.150000 -0.150001 1.600000
v  -0.150000 -0.150001 1.600000
v  0.150000 0.149999 1.600000
v  -0.150000 0.149999 1.600000
v  0.000000 -0.000001 2.000000
# 45 vertices

vn 0.000000 0.000000 -1.000000
vn 0.000000 0.000000 -1.000000
vn 0.000000 0.000000 -1.000000
vn 0.000000 0.000000 -1.000000
vn 0.000000 0.000000 1.000000
vn 0.000000 0.000000 1.000000
vn 0.000000 0.000000 1.000000
vn 0.000000 0.000000 1.000000
vn 0.000000 -1.000000 0.000000
vn 0.000000 -1.000000 0.000000
vn 0.000000 -1.000000 0.000000
vn 0.000000 -1.000000 0.000000
vn 1.000000 0.000000 0.000000
vn 1.000000 0.000000 0.000000
vn 1.000000 0.000000 0.000000
vn 1.000000 0.000000 0.000000
vn 0.000000 1.000000 0.000000
vn 0.000000 1.000000 0.000000
vn 0.000000 1.000000 0.000000
vn 0.000000 1.000000 0.000000
vn -1.000000 0.000000 0.000000
vn -1.000000 0.000000 0.000000
vn -1.000000 0.000000 0.000000
vn -1.000000 0.000000 0.000000
vn 0.000000 -1.000000 -0.000000
vn 0.000000 -1.000000 -0.000000
vn 0.000000 -1.000000 -0.000000
vn 0.000000 -1.000000 -0.000000
vn 0.000000 -0.000000 1.000000
vn 0.000000 -0.000000 1.000000
vn 0.000000 -0.000000 1.000000
vn 0.000000 -0.000000 1.000000
vn 1.000000 0.000000 0.000000
vn 1.000000 0.000000 0.000000
vn 1.000000 0.000000 0.000000
vn 1.000000 0.000000 0.000000
vn 0.000000 0.000000 -1.000000
vn 0.000000 0.000000 -1.000000
vn 0.000000 0.000000 -1.000000
vn 0.000000 0.000000 -1.000000
vn -1.000000 0.000000 0.000000
vn -1.000000 0.000000 0.000000
vn -1.000000 0.000000 0.000000
vn -1.000000 0.000000 0.000000
vn -0.000000 -1.000000 0.000010
vn -0.000000 -1.000000 0.000010
vn -0.000000 -1.000000 0.000010
vn -0.000000 -1.000000 0.000010
vn 0.000010 -1.000000 -0.000000
vn 0.000010 -1.000000 -0.000000
vn 0.000010 -1.000000 -0.000000
vn 0.000010 -1.000000 -0.000000
vn 0.000000 -1.000000 -0.000010
vn 0.000000 -1.000000 -0.000010
vn 0.000000 -1.000000 -0.000010
vn 0.000000 -1.000000 -0.000010
vn -0.000010 -1.000000 0.000000
vn -0.000010 -1.000000 0.000000
vn -0.000010 -1.000000 0.000000
vn -0.000010 -1.000000 0.000000
vn -0.000000 0.351123 0.936329
vn -0.000000 0.351123 0.936329
vn -0.000000 0.351123 0.936329
vn 0.936329 0.351124 -0.000000
vn 0.936329 0.351124 -0.000000
vn 0.936329 0.351124 -0.000000
vn 0.000000 0.351124 -0.936329
vn 0.000000 0.351124 -0.936329
vn 0.000000 0.351124 -0.936329
vn -0.936329 0.351124 0.000000
vn -0.936329 0.351124 0.000000
vn -0.936329 0.351124 0.000000
vn -1.000000 0.000000 -0.000000
vn -1.000000 0.000000 -0.000000
vn -1.000000 0.000000 -0.000000
vn -1.000000 0.000000 -0.000000
vn -0.000000 0.000000 1.000000
vn -0.000000 0.000000 1.000000
vn -0.000000 0.000000 1.000000
vn -0.000000 0.000000 1.000000
vn -0.000000 -1.000000 -0.000000
vn -0.000000 -1.000000 -0.000000
vn -0.000000 -1.000000 -0.000000
vn -0.000000 -1.000000 0.000000
vn 0.000000 -0.000000 -1.000000
vn 0.000000 -0.000000 -1.000000
vn 0.000000 -0.000000 -1.000000
vn 0.000000 0.000000 -1.000000
vn 0.000000 1.000000 0.000000
vn 0.000000 1.000000 0.000000
vn 0.000000 1.000000 0.000000
vn 0.000000 1.000000 0.000000
vn -1.000000 0.000000 0.000010
vn -1.000000 0.000000 0.000010
vn -1.000000 0.000000 0.000010
vn -1.000000 0.000000 0.000010
vn -1.000000 -0.000010 -0.000000
vn -1.000000 -0.000010 -0.000000
vn -1.000000 -0.000010 -0.000000
vn -1.000000 -0.000010 -0.000000
vn -1.000000 -0.000000 -0.000010
vn -1.000000 -0.000000 -0.000010
vn -1.000000 -0.000000 -0.000010
vn -1.000000 -0.000000 -0.000010
vn -1.000000 0.000010 0.000000
vn -1.000000 0.000010 0.000000
vn -1.000000 0.000010 0.000000
vn -1.000000 0.000010 0.000000
vn 0.351123 0.000000 0.936329
vn 0.351123 0.000000 0.936329
vn 0.351123 0.000000 0.936329
vn 0.351124 -0.936329 -0.000000
vn 0.351124 -0.936329 -0.000000
vn 0.351124 -0.936329 -0.000000
vn 0.351124 -0.000000 -0.936329
vn 0.351124 -0.000000 -0.936329
vn 0.351124 -0.000000 -0.936329
vn 0.351124 0.936329 0.000000
vn 0.351124 0.936329 0.000000
vn 0.351124 0.936329 0.000000
vn 0.000000 0.000000 -1.000000
vn 0.000000 0.000000 -1.000000
vn 0.000000 0.000000 -1.000000
vn 0.000000 0.000000 -1.000000
vn 0.000000 -1.000000 -0.000000
vn 0.000000 -1.000000 -0.000000
vn 0.000000 -1.000000 -0.000000
vn 0.000000 -1.000000 -0.000000
vn 1.000000 0.000000 0.000000
vn 1.000000 0.000000 0.000000
vn 1.000000 0.000000 0.000000
vn 1.000000 0.000000 0.000000
vn 0.000000 1.000000 0.000000
vn 0.000000 1.000000 0.000000
vn 0.000000 1.000000 0.000000
vn 0.000000 1.000000 0.000000
vn -1.000000 0.000000 0.000000
vn -1.000000 0.000000 0.000000
vn -1.000000 0.000000 0.000000
vn -1.000000 0.000000 0.000000
vn -0.000000 -0.000010 -1.000000
vn -0.000000 -0.000010 -1.000000
vn -0.000000 -0.000010 -1.000000
vn -0.000000 -0.000010 -1.000000
vn 0.000010 0.000000 -1.000000
vn 0.000010 0.000000 -1.000000
vn 0.000010 0.000000 -1.000000
vn 0.000010 0.000000 -1.000000
vn 0.000000 0.000010 -1.000000
vn 0.000000 0.000010 -1.000000
vn 0.000000 0.000010 -1.000000
vn 0.000000 0.000010 -1.000000
vn -0.000010 0.000000 -1.000000
vn -0.000010 0.000000 -1.000000
vn -0.000010 0.000000 -1.000000
vn -0.000010 0.000000 -1.000000
vn -0.000000 -0.936329 0.351123
vn -0.000000 -0.936329 0.351123
vn -0.000000 -0.936329 0.351123
vn 0.936329 0.000000 0.351124
vn 0.936329 0.000000 0.351124
vn 0.936329 0.000000 0.351124
vn 0.000000 0.936329 0.351124
vn 0.000000 0.936329 0.351124
vn 0.000000 0.936329 0.351124
vn -0.936329 0.000000 0.351124
vn -0.936329 0.000000 0.351124
vn -0.936329 0.000000 0.351124
# 168 vertex normals

vt 1.000000 0.000000 0.000000
vt 0.000000 0.000000 0.000000
vt 1.000000 1.000000 0.000000
vt 0.000000 1.000000 0.000000
vt 0.000000 0.000000 0.000000
vt 1.000000 0.000000 0.000000
vt 0.000000 1.000000 0.000000
vt 1.000000 1.000000 0.000000
vt 0.000000 0.000000 0.000000
vt 1.000000 0.000000 0.000000
vt 0.000000 1.000000 0.000000
vt 1.000000 1.000000 0.000000
vt 0.000000 0.000000 0.000000
vt 1.000000 0.000000 0.000000
vt 0.000000 1.000000 0.000000
vt 1.000000 1.000000 0.000000
vt 0.000000 0.000000 0.000000
vt 1.000000 0.000000 0.000000
vt 0.000000 1.000000 0.000000
vt 1.000000 1.000000 0.000000
vt 0.000000 0.000000 0.000000
vt 1.000000 0.000000 0.000000
vt 0.000000 1.000000 0.000000
vt 1.000000 1.000000 0.000000
vt 1.000000 0.000000 0.000000
vt 0.000000 0.000000 0.000000
vt 1.000000 1.000000 0.000000
vt 0.000000 1.000000 0.000000
vt 0.000000 0.000000 0.000000
vt 1.000000 0.000000 0.000000
vt 0.000000 1.000000 0.000000
vt 1.000000 1.000000 0.000000
vt 0.000000 0.000000 0.000000
vt 1.000000 0.000000 0.000000
vt 0.000000 1.000000 0.000000
vt 1.000000 1.000000 0.000000
vt 0.000000 0.000000 0.000000
vt 1.000000 0.000000 0.000000
vt 0.000000 1.000000 0.000000
vt 1.000000 1.000000 0.000000
vt 0.000000 0.000000 0.000000
vt 1.000000 0.000000 0.000000
vt 0.000000 1.000000 0.000000
vt 1.000000 1.000000 0.000000
vt 0.000000 0.000000 0.000000
vt 1.000000 0.000000 0.000000
vt 1.000000 1.000000 0.000000
vt 0.000000 1.000000 0.000000
vt 0.500000 0.500000 0.000000
vt 1.000000 0.000000 0.000000
vt 0.000000 0.000000 0.000000
vt 1.000000 1.000000 0.000000
vt 0.000000 1.000000 0.000000
vt 0.000000 0.000000 0.000000
vt 1.000000 0.000000 0.000000
vt 0.000000 1.000000 0.000000
vt 1.000000 1.000000 0.000000
vt 0.000000 0.000000 0.000000
vt 1.000000 0.000000 0.000000
vt 0.000000 1.000000 0.000000
vt 1.000000 1.000000 0.000000
vt 0.000000 0.000000 0.000000
vt 1.000000 0.000000 0.000000
vt 0.000000 1.000000 0.000000
vt 1.000000 1.000000 0.000000
vt 0.000000 0.000000 0.000000
vt 1.000000 0.000000 0.000000
vt 0.000000 1.000000 0.000000
vt 1.000000 1.000000 0.000000
vt 0.000000 0.000000 0.000000
vt 1.000000 0.000000 0.000000
vt 1.000000 1.000000 0.000000
vt 0.000000 1.000000 0.000000
vt 0.500000 0.500000 0.000000
vt 1.000000 0.000000 0.000000
vt 0.000000 0.000000 0.000000
vt 1.000000 1.000000 0.000000
vt 0.000000 1.000000 0.000000
vt 0.000000 0.000000 0.000000
vt 1.000000 0.000000 0.000000
vt 0.000000 1.000000 0.000000
vt 1.000000 1.000000 0.000000
vt 0.000000 0.000000 0.000000
vt 1.000000 0.000000 0.000000
vt 0.000000 1.000000 0.000000
vt 1.000000 1.000000 0.000000
vt 0.000000 0.000000 0.000000
vt 1.000000 0.000000 0.000000
vt 0.000000 1.000000 0.000000
vt 1.000000 1.000000 0.000000
vt 0.000000 0.000000 0.000000
vt 1.000000 0.000000 0.000000
vt 0.000000 1.000000 0.000000
vt 1.000000 1.000000 0.000000
vt 0.000000 0.000000 0.000000
vt 1.000000 0.000000 0.000000
vt 1.000000 1.000000 0.000000
vt 0.000000 1.000000 0.000000
vt 0.500000 0.500000 0.000000
# 99 texture coords

g Box02
usemtl Main
s 2
f 1/1/1 2/3/2 3/4/3 4/2/4 
s 4
f 5/5/5 6/6/6 7/8/7 8/7/8 
s 8
f 1/9/9 4/10/10 6/12/11 5/11/12 
s 16
f 4/13/13 3/14/14 7/16/15 6/15/16 
s 32
f 3/17/17 2/18/18 8/20/19 7/19/20 
s 64
f 2/21/21 1/22/22 5/24/23 8/23/24 
s 2
f 9/25/25 10/27/26 11/28/27 12/26/28 
s 8
f 9/29/29 12/30/30 13/32/31 14/31/32 
s 16
f 12/33/33 11/34/34 15/36/35 13/35/36 
s 32
f 11/37/37 10/38/38 16/40/39 15/39/40 
s 64
f 10/41/41 9/42/42 14/44/43 16/43/44 
s off
f 14/31/45 13/32/46 17/46/47 18/45/48 
f 13/35/49 15/36/50 19/47/51 17/46/52 
f 15/39/53 16/40/54 20/48/55 19/47/56 
f 16/43/57 14/44/58 18/45/59 20/48/60 
f 18/45/61 17/46/62 21/49/63 
f 17/46/64 19/47/65 21/49/66 
f 19/47/67 20/48/68 21/49/69 
f 20/48/70 18/45/71 21/49/72 
s 2
f 22/50/73 23/52/74 24/53/75 25/51/76 
s 8
f 22/54/77 25/55/78 26/57/79 27/56/80 
s 16
f 25/58/81 24/59/82 28/61/83 26/60/84 
s 32
f 24/62/85 23/63/86 29/65/87 28/64/88 
s 64
f 23/66/89 22/67/90 27/69/91 29/68/92 
s off
f 27/56/93 26/57/94 30/71/95 31/70/96 
f 26/60/97 28/61/98 32/72/99 30/71/100 
f 28/64/101 29/65/102 33/73/103 32/72/104 
f 29/68/105 27/69/106 31/70/107 33/73/108 
f 31/70/109 30/71/110 34/74/111 
f 30/71/112 32/72/113 34/74/114 
f 32/72/115 33/73/116 34/74/117 
f 33/73/118 31/70/119 34/74/120 
s 2
f 35/75/121 2/77/122 3/78/123 36/76/124 
s 8
f 35/79/125 36/80/126 37/82/127 38/81/128 
s 16
f 36/83/129 3/84/130 39/86/131 37/85/132 
s 32
f 3/87/133 2/88/134 40/90/135 39/89/136 
s 64
f 2/91/137 35/92/138 38/94/139 40/93/140 
s off
f 38/81/141 37/82/142 41/96/143 42/95/144 
f 37/85/145 39/86/146 43/97/147 41/96/148 
f 39/89/149 40/90/150 44/98/151 43/97/152 
f 40/93/153 38/94/154 42/95/155 44/98/156 
f 42/95/157 41/96/158 45/99/159 
f 41/96/160 43/97/161 45/99/162 
f 43/97/163 44/98/164 45/99/165 
f 44/98/166 42/95/167 45/99/168 
# 33 polygons - 12 triangles

