# 3ds Max Wavefront OBJ Exporter v0.94b - (c)2007 guruware
# File Created: 24.01.2012 17:29:04

mtllib BDD_Tilt.mtl

#
# object HeadTilt
#

v  -0.0800 0.0000 0.0000
v  -0.0800 0.0000 0.0300
v  -0.0800 0.0212 0.0212
v  -0.0800 0.0300 0.0000
v  -0.0800 -0.0300 0.0000
v  -0.0800 -0.0212 0.0212
v  -0.0800 0.0000 -0.0300
v  -0.0800 -0.0212 -0.0212
v  -0.0800 0.0212 -0.0212
v  0.0800 0.0212 0.0212
v  0.0800 0.0300 0.0000
v  0.0800 0.0000 0.0300
v  0.0800 -0.0212 0.0212
v  0.0800 -0.0300 0.0000
v  0.0800 -0.0212 -0.0212
v  0.0800 0.0000 -0.0300
v  0.0800 0.0212 -0.0212
v  0.0800 0.0000 0.0000
# 18 vertices

vn -1.0000 -0.0000 0.0000
vn -0.0000 1.0000 -0.0000
vn 0.0000 0.7071 0.7071
vn 0.0000 -0.0000 1.0000
vn 0.0000 -0.7071 0.7071
vn 0.0000 -1.0000 -0.0000
vn -0.0000 -0.7071 -0.7071
vn -0.0000 -0.0000 -1.0000
vn -0.0000 0.7071 -0.7071
vn 1.0000 0.0000 -0.0000
# 10 vertex normals

vt 0.5000 0.0000 0.0000
vt 0.7803 0.0000 0.4142
vt 0.8750 0.0000 1.0000
vt 0.7500 0.0000 1.0000
vt 0.2500 0.0000 1.0000
vt 0.1250 0.0000 1.0000
vt 0.0000 0.0000 1.0000
vt 0.5000 0.0000 1.0000
vt 0.3750 0.0000 1.0000
vt 0.6250 0.0000 1.0000
vt 0.8750 1.0000 1.0000
vt 0.7500 1.0000 1.0000
vt -0.1250 0.0000 1.0000
vt 0.0000 1.0000 1.0000
vt -0.1250 1.0000 1.0000
vt 0.1250 1.0000 1.0000
vt 0.2500 1.0000 1.0000
vt 0.3750 1.0000 1.0000
vt 0.5000 1.0000 1.0000
vt 0.6250 1.0000 1.0000
vt 0.5000 1.0000 0.0000
# 21 texture coords

g HeadTilt
usemtl BDD05
s 1
f 1/1/1 2/2/1 3/3/1 4/4/1 
f 1/1/1 5/5/1 6/6/1 2/7/1 
f 1/1/1 7/8/1 8/9/1 5/5/1 
f 1/1/1 4/4/1 9/10/1 7/8/1 
s 8
f 4/4/2 3/3/3 10/11/3 11/12/2 
f 3/13/3 2/7/4 12/14/4 10/15/3 
f 2/7/4 6/6/5 13/16/5 12/14/4 
f 6/6/5 5/5/6 14/17/6 13/16/5 
f 5/5/6 8/9/7 15/18/7 14/17/6 
f 8/9/7 7/8/8 16/19/8 15/18/7 
f 7/8/8 9/10/9 17/20/9 16/19/8 
f 9/10/9 4/4/2 11/12/2 17/20/9 
s 1
f 18/21/10 17/20/10 11/12/10 10/11/10 
f 18/21/10 10/15/10 12/14/10 13/16/10 
f 18/21/10 13/16/10 14/17/10 15/18/10 
f 18/21/10 15/18/10 16/19/10 17/20/10 
# 16 polygons

#
# object Line23
#

v  -0.0800 0.1500 -0.0300
v  -0.0800 0.1600 -0.0300
v  0.0800 0.1600 -0.0300
v  0.0800 0.1500 -0.0300
v  -0.0800 0.1600 0.0400
v  0.0800 0.1600 0.0400
v  -0.0800 0.1584 0.0503
v  0.0800 0.1584 0.0503
v  -0.0800 0.1545 0.0586
v  0.0800 0.1545 0.0586
v  -0.0800 0.1484 0.0646
v  0.0800 0.1484 0.0646
v  -0.0800 0.1402 0.0684
v  0.0800 0.1402 0.0684
v  -0.0800 0.1300 0.0700
v  0.0800 0.1300 0.0700
v  -0.0800 -0.1200 0.0700
v  0.0800 -0.1200 0.0700
v  -0.0800 -0.1338 0.0680
v  0.0800 -0.1338 0.0680
v  -0.0800 -0.1442 0.0633
v  0.0800 -0.1442 0.0633
v  -0.0800 -0.1520 0.0566
v  0.0800 -0.1520 0.0566
v  -0.0800 -0.1581 0.0485
v  0.0800 -0.1581 0.0485
v  -0.0800 -0.1633 0.0397
v  0.0800 -0.1633 0.0397
v  -0.0800 -0.1520 0.0400
v  0.0800 -0.1520 0.0400
v  -0.0800 -0.1200 0.0600
v  0.0800 -0.1200 0.0600
v  -0.0800 0.1300 0.0600
v  0.0800 0.1300 0.0600
v  -0.0800 0.1500 0.0400
v  0.0800 0.1500 0.0400
# 36 vertices

vn -0.0000 -0.0000 -1.0000
vn -0.0000 1.0000 0.0000
vn -0.0000 0.9887 0.1501
vn -0.0000 0.9561 0.2930
vn -0.0000 0.8151 0.5793
vn 0.0000 0.5709 0.8210
vn 0.0000 0.2896 0.9571
vn 0.0000 0.1511 0.9885
vn 0.0000 0.0000 1.0000
vn 0.0000 -0.1409 0.9900
vn 0.0000 -0.2796 0.9601
vn 0.0000 -0.5394 0.8420
vn 0.0000 -0.7323 0.6810
vn 0.0000 -0.8323 0.5544
vn 0.0000 -0.8609 0.5087
vn -0.0000 0.0274 -0.9996
vn -0.0000 0.5302 -0.8479
vn -0.0000 -0.7071 -0.7071
vn 0.0000 -1.0000 0.0000
vn -1.0000 0.0000 -0.0000
vn -1.0000 0.0000 0.0000
vn -1.0000 -0.0000 -0.0000
vn -1.0000 -0.0000 0.0000
vn 1.0000 -0.0000 0.0000
vn 1.0000 0.0000 -0.0000
vn 1.0000 0.0000 0.0000
# 26 vertex normals

g Line23
usemtl BDD03
s 1
f 19//11 20//11 21//11 22//11 
s 4
f 20//12 23//12 24//12 21//12 
s 2
f 23//13 25//14 26//14 24//13 
f 25//14 27//15 28//15 26//14 
f 27//15 29//16 30//16 28//15 
f 29//16 31//17 32//17 30//16 
f 31//17 33//18 34//18 32//17 
s 4
f 33//19 35//19 36//19 34//19 
s 2
f 35//20 37//21 38//21 36//20 
f 37//21 39//22 40//22 38//21 
f 39//22 41//23 42//23 40//22 
f 41//23 43//24 44//24 42//23 
f 43//24 45//25 46//25 44//24 
s 4
f 45//26 47//26 48//26 46//26 
s 2
f 47//27 49//27 50//27 48//27 
s 4
f 49//11 51//11 52//11 50//11 
s 2
f 51//28 53//28 54//28 52//28 
s 4
f 53//29 19//29 22//29 54//29 
s 16
f 43//30 41//30 47//30 45//30 
f 19//31 53//31 23//31 20//31 
f 53//31 51//32 25//33 23//31 
f 51//32 29//32 27//32 25//33 
f 51//32 33//32 31//32 29//32 
f 49//30 35//30 33//32 51//32 
f 49//30 47//30 37//30 35//30 
f 47//30 41//30 39//30 37//30 
f 44//34 46//34 48//34 42//34 
f 22//35 21//35 24//35 54//35 
f 54//35 24//35 26//35 52//36 
f 52//36 26//35 28//36 30//36 
f 52//36 30//36 32//36 34//36 
f 50//34 52//36 34//36 36//34 
f 50//34 36//34 38//34 48//34 
f 48//34 38//34 40//34 42//34 
# 34 polygons

#
# object Line22
#

v  0.2500 0.1294 -0.0700
v  0.2500 0.1382 -0.0690
v  0.2400 0.1407 -0.0788
v  0.2400 0.1300 -0.0800
v  0.2500 0.1434 -0.0668
v  0.2400 0.1491 -0.0753
v  0.2500 0.1467 -0.0636
v  0.2400 0.1551 -0.0693
v  0.2500 0.1490 -0.0583
v  0.2400 0.1587 -0.0609
v  0.2500 0.1500 -0.0494
v  0.2400 0.1600 -0.0500
v  0.2500 0.1500 0.0392
v  0.2400 0.1600 0.0400
v  0.2500 0.1488 0.0474
v  0.2400 0.1584 0.0503
v  0.2500 0.1462 0.0527
v  0.2400 0.1545 0.0586
v  0.2500 0.1426 0.0563
v  0.2400 0.1484 0.0646
v  0.2500 0.1373 0.0588
v  0.2400 0.1402 0.0684
v  0.2500 0.1292 0.0600
v  0.2400 0.1300 0.0700
v  0.2500 -0.1183 0.0600
v  0.2400 -0.1200 0.0700
v  0.2500 -0.1433 0.0513
v  0.2400 -0.1498 0.0596
v  0.2500 -0.1565 0.0310
v  0.2400 -0.1663 0.0342
v  0.2500 -0.1579 0.0041
v  0.2400 -0.1680 0.0021
v  0.2500 -0.1453 -0.0218
v  0.2400 -0.1531 -0.0287
v  0.2500 -0.1159 -0.0408
v  0.2400 -0.1200 -0.0500
v  0.2500 -0.0087 -0.0700
v  0.2400 -0.0100 -0.0800
v  0.0800 0.1407 -0.0788
v  0.0800 0.1300 -0.0800
v  0.0800 0.1491 -0.0753
v  0.0800 0.1551 -0.0693
v  0.0800 0.1587 -0.0609
v  0.0800 0.1600 -0.0500
v  0.0800 0.1600 0.0400
v  0.0800 0.1584 0.0503
v  0.0800 0.1545 0.0586
v  0.0800 0.1484 0.0646
v  0.0800 0.1402 0.0684
v  0.0800 0.1300 0.0700
v  0.0800 -0.1200 0.0700
v  0.0800 -0.1498 0.0596
v  0.0800 -0.1663 0.0342
v  0.0800 -0.1680 0.0021
v  0.0800 -0.1531 -0.0287
v  0.0800 -0.1200 -0.0500
v  0.0800 -0.0100 -0.0800
# 57 vertices

vn 0.7071 0.0783 -0.7028
vn 0.7108 0.1780 -0.6805
vn 0.7135 0.3901 -0.5820
vn 0.7135 0.5783 -0.3955
vn 0.7109 0.6791 -0.1831
vn 0.7071 0.7022 -0.0829
vn 0.7071 0.7071 0.0000
vn 0.7071 0.6991 0.1062
vn 0.7109 0.6724 0.2061
vn 0.7125 0.5720 0.4065
vn 0.7123 0.4007 0.5762
vn 0.7107 0.2038 0.6734
vn 0.7071 0.1068 0.6990
vn 0.7071 -0.0000 0.7071
vn 0.7071 -0.2333 0.6675
vn 0.7262 -0.4239 0.5412
vn 0.7194 -0.6605 0.2151
vn 0.7183 -0.6820 -0.1378
vn 0.7205 -0.5192 -0.4598
vn 0.7071 -0.3825 -0.5947
vn 0.7071 -0.1861 -0.6822
vn 0.7071 0.0000 -0.7071
vn 0.0000 0.1108 -0.9938
vn 0.0000 0.2530 -0.9675
vn 0.0000 0.5568 -0.8307
vn 0.0000 0.8254 -0.5645
vn 0.0000 0.9655 -0.2603
vn 0.0000 0.9931 -0.1172
vn 0.0000 1.0000 0.0000
vn 0.0000 0.9887 0.1501
vn 0.0000 0.9561 0.2930
vn 0.0000 0.8151 0.5793
vn -0.0000 0.5709 0.8210
vn -0.0000 0.2896 0.9571
vn -0.0000 0.1511 0.9885
vn -0.0000 -0.0000 1.0000
vn -0.0000 -0.3300 0.9440
vn -0.0000 -0.6167 0.7872
vn -0.0000 -0.9509 0.3096
vn -0.0000 -0.9802 -0.1981
vn -0.0000 -0.7486 -0.6630
vn 0.0000 -0.5409 -0.8411
vn 0.0000 -0.2631 -0.9648
vn 0.0000 0.0000 -1.0000
vn -1.0000 0.0000 -0.0000
vn 1.0000 -0.0000 0.0000
# 46 vertex normals

g Line22
usemtl BDD03
s 2
f 58//37 57//38 56//38 55//37 
f 57//38 60//39 59//39 56//38 
f 60//39 62//40 61//40 59//39 
f 62//40 64//41 63//41 61//40 
f 64//41 66//42 65//42 63//41 
s 4
f 66//43 68//43 67//43 65//43 
s 8
f 68//44 70//45 69//45 67//44 
f 70//45 72//46 71//46 69//45 
f 72//46 74//47 73//47 71//46 
f 74//47 76//48 75//48 73//47 
f 76//48 78//49 77//49 75//48 
s 16
f 78//50 80//50 79//50 77//50 
s 2
f 80//51 82//52 81//52 79//51 
f 82//52 84//53 83//53 81//52 
f 84//53 86//54 85//54 83//53 
f 86//54 88//55 87//55 85//54 
f 88//55 90//56 89//56 87//55 
s 4
f 90//57 92//57 91//57 89//57 
s 9
f 92//58 58//58 55//58 91//58 
s 64
f 94//59 93//60 57//60 58//59 
f 93//60 95//61 60//61 57//60 
f 95//61 96//62 62//62 60//61 
f 96//62 97//63 64//63 62//62 
f 97//63 98//64 66//64 64//63 
s 128
f 98//65 99//65 68//65 66//65 
s 256
f 99//66 100//67 70//67 68//66 
f 100//67 101//68 72//68 70//67 
f 101//68 102//69 74//69 72//68 
f 102//69 103//70 76//70 74//69 
f 103//70 104//71 78//71 76//70 
s 512
f 104//72 105//72 80//72 78//72 
s 64
f 105//73 106//74 82//74 80//73 
f 106//74 107//75 84//75 82//74 
f 107//75 108//76 86//76 84//75 
f 108//76 109//77 88//77 86//76 
f 109//77 110//78 90//78 88//77 
s 128
f 110//79 111//79 92//79 90//79 
s 288
f 111//80 94//80 58//80 92//80 
s 1024
f 108//81 107//81 106//81 105//81 
f 110//81 109//81 108//81 105//81 
f 111//81 110//81 105//81 104//81 
f 103//81 94//81 111//81 104//81 
f 101//81 94//81 103//81 102//81 
f 99//81 94//81 101//81 100//81 
f 97//81 94//81 99//81 98//81 
f 96//81 93//81 94//81 97//81 
f 95//81 93//81 96//81 
f 81//82 83//82 85//82 79//82 
f 85//82 87//82 89//82 79//82 
f 79//82 89//82 91//82 77//82 
f 91//82 55//82 75//82 77//82 
f 75//82 55//82 71//82 73//82 
f 71//82 55//82 67//82 69//82 
f 67//82 55//82 63//82 65//82 
f 55//82 56//82 61//82 63//82 
f 56//82 59//82 61//82 
# 54 polygons - 2 triangles

#
# object Line16
#

v  -0.2500 0.1294 -0.0700
v  -0.2500 0.1382 -0.0690
v  -0.2400 0.1407 -0.0788
v  -0.2400 0.1300 -0.0800
v  -0.2500 0.1434 -0.0668
v  -0.2400 0.1491 -0.0753
v  -0.2500 0.1467 -0.0636
v  -0.2400 0.1551 -0.0693
v  -0.2500 0.1490 -0.0583
v  -0.2400 0.1587 -0.0609
v  -0.2500 0.1500 -0.0494
v  -0.2400 0.1600 -0.0500
v  -0.2500 0.1500 0.0392
v  -0.2400 0.1600 0.0400
v  -0.2500 0.1488 0.0474
v  -0.2400 0.1584 0.0503
v  -0.2500 0.1462 0.0527
v  -0.2400 0.1545 0.0586
v  -0.2500 0.1426 0.0563
v  -0.2400 0.1484 0.0646
v  -0.2500 0.1373 0.0588
v  -0.2400 0.1402 0.0684
v  -0.2500 0.1292 0.0600
v  -0.2400 0.1300 0.0700
v  -0.2500 -0.1183 0.0600
v  -0.2400 -0.1200 0.0700
v  -0.2500 -0.1433 0.0513
v  -0.2400 -0.1498 0.0596
v  -0.2500 -0.1565 0.0310
v  -0.2400 -0.1663 0.0342
v  -0.2500 -0.1579 0.0041
v  -0.2400 -0.1680 0.0021
v  -0.2500 -0.1453 -0.0218
v  -0.2400 -0.1531 -0.0287
v  -0.2500 -0.1159 -0.0408
v  -0.2400 -0.1200 -0.0500
v  -0.2500 -0.0087 -0.0700
v  -0.2400 -0.0100 -0.0800
v  -0.0800 0.1407 -0.0788
v  -0.0800 0.1300 -0.0800
v  -0.0800 0.1491 -0.0753
v  -0.0800 0.1551 -0.0693
v  -0.0800 0.1587 -0.0609
v  -0.0800 0.1600 -0.0500
v  -0.0800 0.1600 0.0400
v  -0.0800 0.1584 0.0503
v  -0.0800 0.1545 0.0586
v  -0.0800 0.1484 0.0646
v  -0.0800 0.1402 0.0684
v  -0.0800 0.1300 0.0700
v  -0.0800 -0.1200 0.0700
v  -0.0800 -0.1498 0.0596
v  -0.0800 -0.1663 0.0342
v  -0.0800 -0.1680 0.0021
v  -0.0800 -0.1531 -0.0287
v  -0.0800 -0.1200 -0.0500
v  -0.0800 -0.0100 -0.0800
# 57 vertices

vn -0.7071 0.0783 -0.7028
vn -0.7108 0.1780 -0.6805
vn -0.7135 0.3901 -0.5820
vn -0.7135 0.5783 -0.3955
vn -0.7109 0.6791 -0.1831
vn -0.7071 0.7022 -0.0829
vn -0.7071 0.7071 0.0000
vn -0.7071 0.6991 0.1062
vn -0.7109 0.6724 0.2061
vn -0.7125 0.5720 0.4065
vn -0.7123 0.4007 0.5762
vn -0.7107 0.2038 0.6734
vn -0.7071 0.1068 0.6990
vn -0.7071 -0.0000 0.7071
vn -0.7071 -0.2333 0.6675
vn -0.7262 -0.4239 0.5412
vn -0.7194 -0.6605 0.2151
vn -0.7183 -0.6820 -0.1378
vn -0.7205 -0.5192 -0.4598
vn -0.7071 -0.3825 -0.5947
vn -0.7071 -0.1861 -0.6822
vn -0.7071 -0.0000 -0.7071
vn -0.0000 0.1108 -0.9938
vn -0.0000 0.2530 -0.9675
vn -0.0000 0.5568 -0.8307
vn -0.0000 0.8254 -0.5645
vn -0.0000 0.9655 -0.2603
vn -0.0000 0.9931 -0.1172
vn -0.0000 1.0000 0.0000
vn -0.0000 0.9887 0.1501
vn -0.0000 0.9561 0.2930
vn -0.0000 0.8151 0.5793
vn 0.0000 0.5709 0.8210
vn 0.0000 0.2896 0.9571
vn 0.0000 0.1511 0.9885
vn 0.0000 0.0000 1.0000
vn 0.0000 -0.3300 0.9440
vn 0.0000 -0.6167 0.7872
vn 0.0000 -0.9509 0.3096
vn 0.0000 -0.9802 -0.1981
vn 0.0000 -0.7486 -0.6630
vn -0.0000 -0.5409 -0.8411
vn -0.0000 -0.2631 -0.9648
vn -0.0000 -0.0000 -1.0000
vn 1.0000 0.0000 -0.0000
vn -1.0000 -0.0000 0.0000
# 46 vertex normals

g Line16
usemtl BDD03
s 2
f 112//83 113//84 114//84 115//83 
f 113//84 116//85 117//85 114//84 
f 116//85 118//86 119//86 117//85 
f 118//86 120//87 121//87 119//86 
f 120//87 122//88 123//88 121//87 
s 4
f 122//89 124//89 125//89 123//89 
s 8
f 124//90 126//91 127//91 125//90 
f 126//91 128//92 129//92 127//91 
f 128//92 130//93 131//93 129//92 
f 130//93 132//94 133//94 131//93 
f 132//94 134//95 135//95 133//94 
s 16
f 134//96 136//96 137//96 135//96 
s 2
f 136//97 138//98 139//98 137//97 
f 138//98 140//99 141//99 139//98 
f 140//99 142//100 143//100 141//99 
f 142//100 144//101 145//101 143//100 
f 144//101 146//102 147//102 145//101 
s 4
f 146//103 148//103 149//103 147//103 
s 9
f 148//104 112//104 115//104 149//104 
s 64
f 115//105 114//106 150//106 151//105 
f 114//106 117//107 152//107 150//106 
f 117//107 119//108 153//108 152//107 
f 119//108 121//109 154//109 153//108 
f 121//109 123//110 155//110 154//109 
s 128
f 123//111 125//111 156//111 155//111 
s 256
f 125//112 127//113 157//113 156//112 
f 127//113 129//114 158//114 157//113 
f 129//114 131//115 159//115 158//114 
f 131//115 133//116 160//116 159//115 
f 133//116 135//117 161//117 160//116 
s 512
f 135//118 137//118 162//118 161//118 
s 64
f 137//119 139//120 163//120 162//119 
f 139//120 141//121 164//121 163//120 
f 141//121 143//122 165//122 164//121 
f 143//122 145//123 166//123 165//122 
f 145//123 147//124 167//124 166//123 
s 128
f 147//125 149//125 168//125 167//125 
s 288
f 149//126 115//126 151//126 168//126 
s 1024
f 162//127 163//127 164//127 165//127 
f 162//127 165//127 166//127 167//127 
f 161//127 162//127 167//127 168//127 
f 161//127 168//127 151//127 160//127 
f 159//127 160//127 151//127 158//127 
f 157//127 158//127 151//127 156//127 
f 155//127 156//127 151//127 154//127 
f 154//127 151//127 150//127 153//127 
f 153//127 150//127 152//127 
f 136//128 142//128 140//128 138//128 
f 136//128 146//128 144//128 142//128 
f 134//128 148//128 146//128 136//128 
f 134//128 132//128 112//128 148//128 
f 130//128 128//128 112//128 132//128 
f 126//128 124//128 112//128 128//128 
f 122//128 120//128 112//128 124//128 
f 120//128 118//128 113//128 112//128 
f 118//128 116//128 113//128 
# 54 polygons - 2 triangles

