# 3ds Max Wavefront OBJ Exporter v0.94b - (c)2007 guruware
# File Created: 24.01.2012 17:26:52

mtllib BDD_Mat02.mtl

#
# object Mat01
#

v  0.0000 0.0000 -0.0000
v  0.0460 0.0460 -0.0000
v  0.0601 0.0249 -0.0000
v  0.0650 0.0000 -0.0000
v  -0.0000 0.0650 -0.0000
v  0.0249 0.0601 -0.0000
v  -0.0460 0.0460 -0.0000
v  -0.0249 0.0601 -0.0000
v  -0.0650 0.0000 -0.0000
v  -0.0601 0.0249 -0.0000
v  -0.0460 -0.0460 -0.0000
v  -0.0601 -0.0249 -0.0000
v  0.0000 -0.0650 -0.0000
v  -0.0249 -0.0601 -0.0000
v  0.0460 -0.0460 -0.0000
v  0.0249 -0.0601 -0.0000
v  0.0601 -0.0249 -0.0000
v  0.0601 0.0249 0.5000
v  0.0650 0.0000 0.5000
v  0.0460 0.0460 0.5000
v  0.0249 0.0601 0.5000
v  -0.0000 0.0650 0.5000
v  -0.0249 0.0601 0.5000
v  -0.0460 0.0460 0.5000
v  -0.0601 0.0249 0.5000
v  -0.0650 0.0000 0.5000
v  -0.0601 -0.0249 0.5000
v  -0.0460 -0.0460 0.5000
v  -0.0249 -0.0601 0.5000
v  0.0000 -0.0650 0.5000
v  0.0249 -0.0601 0.5000
v  0.0460 -0.0460 0.5000
v  0.0601 -0.0249 0.5000
v  0.0000 0.0000 0.5000
# 34 vertices

vn 0.0000 0.0000 -1.0000
vn 1.0000 0.0000 0.0000
vn 0.9239 0.3827 0.0000
vn 0.7071 0.7071 0.0000
vn 0.3827 0.9239 0.0000
vn 0.0000 1.0000 0.0000
vn -0.0000 1.0000 0.0000
vn -0.3827 0.9239 0.0000
vn -0.7071 0.7071 0.0000
vn -0.9239 0.3827 0.0000
vn -1.0000 0.0000 0.0000
vn -0.9239 -0.3827 0.0000
vn -0.7071 -0.7071 0.0000
vn -0.3827 -0.9239 0.0000
vn 0.0000 -1.0000 0.0000
vn 0.3827 -0.9239 0.0000
vn 0.7071 -0.7071 0.0000
vn 0.9239 -0.3827 0.0000
vn 0.0000 0.0000 1.0000
# 19 vertex normals

vt 0.5000 0.0000 0.0000
vt 0.8750 0.0000 1.0000
vt 0.8125 0.0000 1.0000
vt 0.7500 0.0000 1.0000
vt 0.0000 0.0000 1.0000
vt -0.0625 0.0000 1.0000
vt -0.0394 0.0000 0.8478
vt 0.1250 0.0000 1.0000
vt 0.0625 0.0000 1.0000
vt 0.2500 0.0000 1.0000
vt 0.1875 0.0000 1.0000
vt 0.3750 0.0000 1.0000
vt 0.3125 0.0000 1.0000
vt 0.5000 0.0000 1.0000
vt 0.4375 0.0000 1.0000
vt 0.6250 0.0000 1.0000
vt 0.5625 0.0000 1.0000
vt 0.6875 0.0000 1.0000
vt 0.8125 1.0000 1.0000
vt 0.7500 1.0000 1.0000
vt 0.8750 1.0000 1.0000
vt 0.9375 0.0000 1.0000
vt 0.9375 1.0000 1.0000
vt 0.0000 1.0000 1.0000
vt -0.0625 1.0000 1.0000
vt 0.0625 1.0000 1.0000
vt 0.1250 1.0000 1.0000
vt 0.1875 1.0000 1.0000
vt 0.2500 1.0000 1.0000
vt 0.3125 1.0000 1.0000
vt 0.3750 1.0000 1.0000
vt 0.4375 1.0000 1.0000
vt 0.5000 1.0000 1.0000
vt 0.5625 1.0000 1.0000
vt 0.6250 1.0000 1.0000
vt 0.6875 1.0000 1.0000
vt 0.5000 1.0000 0.0000
# 37 texture coords

g Mat01
usemtl BDD03
s 1
f 1/1/1 2/2/1 3/3/1 4/4/1 
f 1/1/1 5/5/1 6/6/1 2/7/1 
f 1/1/1 7/8/1 8/9/1 5/5/1 
f 1/1/1 9/10/1 10/11/1 7/8/1 
f 1/1/1 11/12/1 12/13/1 9/10/1 
f 1/1/1 13/14/1 14/15/1 11/12/1 
f 1/1/1 15/16/1 16/17/1 13/14/1 
f 1/1/1 4/4/1 17/18/1 15/16/1 
s 8
f 4/4/2 3/3/3 18/19/3 19/20/2 
f 3/3/3 2/2/4 20/21/4 18/19/3 
f 2/2/4 6/22/5 21/23/5 20/21/4 
f 6/6/5 5/5/6 22/24/7 21/25/5 
f 5/5/6 8/9/8 23/26/8 22/24/7 
f 8/9/8 7/8/9 24/27/9 23/26/8 
f 7/8/9 10/11/10 25/28/10 24/27/9 
f 10/11/10 9/10/11 26/29/11 25/28/10 
f 9/10/11 12/13/12 27/30/12 26/29/11 
f 12/13/12 11/12/13 28/31/13 27/30/12 
f 11/12/13 14/15/14 29/32/14 28/31/13 
f 14/15/14 13/14/15 30/33/15 29/32/14 
f 13/14/15 16/17/16 31/34/16 30/33/15 
f 16/17/16 15/16/17 32/35/17 31/34/16 
f 15/16/17 17/18/18 33/36/18 32/35/17 
f 17/18/18 4/4/2 19/20/2 33/36/18 
s 1
f 34/37/19 33/36/19 19/20/19 18/19/19 
f 34/37/19 18/19/19 20/21/19 21/23/19 
f 34/37/19 21/25/19 22/24/19 23/26/19 
f 34/37/19 23/26/19 24/27/19 25/28/19 
f 34/37/19 25/28/19 26/29/19 27/30/19 
f 34/37/19 27/30/19 28/31/19 29/32/19 
f 34/37/19 29/32/19 30/33/19 31/34/19 
f 34/37/19 31/34/19 32/35/19 33/36/19 
# 32 polygons

