# Blender v2.76 (sub 0) OBJ File: 'VBCI.blend'
# www.blender.org
mtllib VBCI_Turret.mtl
o VBCI_Turret_Cylinder.001
v 0.000000 0.636940 0.100000
v 0.450385 0.450385 0.100000
v 0.565685 0.565685 0.600000
v 0.636940 -0.000000 0.100000
v 0.800000 -0.000000 0.600000
v 0.450385 -0.450385 0.100000
v 0.565685 -0.565685 0.600000
v -0.000000 -0.636940 0.100000
v -0.000000 -0.800000 0.600000
v -0.450385 -0.450385 0.100000
v -0.565686 -0.565685 0.600000
v -0.636940 0.000000 0.100000
v -0.800000 0.000000 0.600000
v -0.450385 0.450385 0.100000
v -0.565686 0.565685 0.600000
v 0.565685 0.565685 0.100000
v 0.800000 -0.000000 0.100000
v 0.565685 -0.565685 0.100000
v -0.000000 -0.800000 0.100000
v -0.565686 -0.565685 0.100000
v -0.800000 0.000000 0.100000
v -0.565686 0.565685 0.100000
v 0.000000 0.636940 0.000000
v 0.450385 0.450385 0.000000
v 0.636940 -0.000000 0.000000
v 0.450385 -0.450385 0.000000
v -0.000000 -0.636940 0.000000
v -0.450385 -0.450385 0.000000
v -0.636940 0.000000 0.000000
v -0.450385 0.450385 0.000000
v 0.282843 0.682843 0.100000
v 0.240757 0.682843 0.557914
v 0.225192 0.543663 0.100000
v 0.225192 0.543663 0.000000
v -0.282843 0.682843 0.100000
v -0.240757 0.682843 0.557914
v -0.225192 0.543663 0.100000
v -0.225192 0.543663 0.000000
v 0.565685 0.565685 0.200000
v 0.800000 -0.000000 0.200000
v 0.565685 -0.565685 0.200000
v -0.000000 -0.800000 0.200000
v -0.565686 -0.565685 0.200000
v -0.800000 0.000000 0.200000
v -0.565686 0.565685 0.200000
v 0.240757 0.682843 0.242086
v -0.240757 0.682843 0.242086
v 0.282843 0.682843 0.600000
v -0.282843 0.682843 0.600000
v 0.282843 0.682843 0.200000
v -0.282843 0.682843 0.200000
v 0.240757 0.451757 0.557914
v -0.240757 0.451757 0.557914
v 0.240757 0.451757 0.242086
v -0.240757 0.451757 0.242086
vn 0.382700 0.923900 0.000000
vn 0.923900 0.382700 0.000000
vn 0.923900 -0.382700 0.000000
vn 0.382700 -0.923900 0.000000
vn -0.382700 -0.923900 0.000000
vn -0.923900 -0.382700 0.000000
vn 0.000000 0.000000 1.000000
vn -0.923900 0.382700 0.000000
vn 0.000000 0.000000 -1.000000
vn -0.382700 0.923900 0.000000
vn 0.000000 1.000000 0.000000
vn -1.000000 0.000000 0.000000
vn 1.000000 0.000000 0.000000
usemtl None
s off
f 50//1 48//1 3//1 39//1
f 39//2 3//2 5//2 40//2
f 40//3 5//3 7//3 41//3
f 41//4 7//4 9//4 42//4
f 42//5 9//5 11//5 43//5
f 43//6 11//6 13//6 44//6
f 5//7 3//7 48//7 49//7 15//7 13//7 11//7 9//7 7//7
f 44//8 13//8 15//8 45//8
f 6//4 8//4 27//4 26//4
f 4//9 2//9 16//9 17//9
f 6//9 4//9 17//9 18//9
f 8//9 6//9 18//9 19//9
f 10//9 8//9 19//9 20//9
f 12//9 10//9 20//9 21//9
f 14//9 12//9 21//9 22//9
f 37//9 14//9 22//9 35//9
f 23//9 34//9 24//9 25//9 26//9 27//9 28//9 29//9 30//9 38//9
f 2//2 4//2 25//2 24//2
f 12//8 14//8 30//8 29//8
f 8//5 10//5 28//5 27//5
f 4//3 6//3 26//3 25//3
f 33//1 2//1 24//1 34//1
f 37//10 1//10 23//10 38//10
f 10//6 12//6 29//6 28//6
f 1//1 33//1 34//1 23//1
f 2//9 33//9 31//9 16//9
f 37//9 35//9 31//9 33//9 1//9
f 14//10 37//10 38//10 30//10
f 46//7 47//7 55//7 54//7
f 45//10 15//10 49//10 51//10
f 22//10 45//10 51//10 35//10
f 35//11 51//11 50//11 31//11
f 21//8 44//8 45//8 22//8
f 20//6 43//6 44//6 21//6
f 19//5 42//5 43//5 20//5
f 18//4 41//4 42//4 19//4
f 17//3 40//3 41//3 18//3
f 16//2 39//2 40//2 17//2
f 31//1 50//1 39//1 16//1
f 32//11 36//11 49//11 48//11
f 46//11 32//11 48//11 50//11
f 36//11 47//11 51//11 49//11
f 47//11 46//11 50//11 51//11
f 55//11 53//11 52//11 54//11
f 32//12 46//12 54//12 52//12
f 47//13 36//13 53//13 55//13
f 36//9 32//9 52//9 53//9
