# Blender v2.76 (sub 0) OBJ File: 'VBCI.blend'
# www.blender.org
mtllib VBCI_Gun.mtl
o VBCI_Gun_Cylinder.002
v 0.000000 0.000000 -0.064000
v -0.000000 1.900000 -0.025000
v 0.024492 0.000000 -0.059128
v 0.009567 1.900000 -0.023097
v 0.045255 0.000000 -0.045255
v 0.017678 1.900000 -0.017678
v 0.059128 -0.000000 -0.024492
v 0.023097 1.900000 -0.009567
v 0.064000 -0.000000 -0.000000
v 0.025000 1.900000 0.000000
v 0.059128 -0.000000 0.024492
v 0.023097 1.900000 0.009567
v 0.045255 -0.000000 0.045255
v 0.017678 1.900000 0.017678
v 0.024492 -0.000000 0.059128
v 0.009567 1.900000 0.023097
v 0.000000 -0.000000 0.064000
v 0.000000 1.900000 0.025000
v -0.024492 -0.000000 0.059128
v -0.009567 1.900000 0.023097
v -0.045255 -0.000000 0.045255
v -0.017678 1.900000 0.017678
v -0.059128 -0.000000 0.024492
v -0.023097 1.900000 0.009567
v -0.064000 -0.000000 -0.000000
v -0.025000 1.900000 0.000000
v -0.059128 -0.000000 -0.024492
v -0.023097 1.900000 -0.009567
v -0.045255 0.000000 -0.045255
v -0.017678 1.900000 -0.017678
v -0.024492 0.000000 -0.059128
v -0.009567 1.900000 -0.023097
vn 0.000000 -0.658100 -0.752900
vn 0.000000 0.673300 -0.739400
vn 0.282900 0.673300 -0.683100
vn 0.288100 -0.658100 -0.695600
vn 0.522800 0.673300 -0.522800
vn 0.532400 -0.658100 -0.532400
vn 0.683100 0.673300 -0.282900
vn 0.695600 -0.658100 -0.288100
vn 0.739400 0.673300 0.000000
vn 0.752900 -0.658100 0.000000
vn 0.683100 0.673300 0.282900
vn 0.695600 -0.658100 0.288100
vn 0.522800 0.673300 0.522800
vn 0.532400 -0.658100 0.532400
vn 0.282900 0.673300 0.683100
vn 0.288100 -0.658100 0.695600
vn 0.000000 0.673300 0.739400
vn 0.000000 -0.658100 0.752900
vn -0.282900 0.673300 0.683100
vn -0.288100 -0.658100 0.695600
vn -0.522800 0.673300 0.522800
vn -0.532400 -0.658100 0.532400
vn -0.683100 0.673300 0.282900
vn -0.695600 -0.658100 0.288100
vn -0.739400 0.673300 0.000000
vn -0.752900 -0.658100 0.000000
vn -0.683100 0.673300 -0.282900
vn -0.695600 -0.658100 -0.288100
vn -0.522800 0.673300 -0.522800
vn -0.532400 -0.658100 -0.532400
vn -0.282900 0.673300 -0.683100
vn -0.288100 -0.658100 -0.695600
usemtl None
s 1
f 1//1 2//2 4//3 3//4
f 3//4 4//3 6//5 5//6
f 5//6 6//5 8//7 7//8
f 7//8 8//7 10//9 9//10
f 9//10 10//9 12//11 11//12
f 11//12 12//11 14//13 13//14
f 13//14 14//13 16//15 15//16
f 15//16 16//15 18//17 17//18
f 17//18 18//17 20//19 19//20
f 19//20 20//19 22//21 21//22
f 21//22 22//21 24//23 23//24
f 23//24 24//23 26//25 25//26
f 25//26 26//25 28//27 27//28
f 27//28 28//27 30//29 29//30
f 4//3 2//2 32//31 30//29 28//27 26//25 24//23 22//21 20//19 18//17 16//15 14//13 12//11 10//9 8//7 6//5
f 31//32 32//31 2//2 1//1
f 29//30 30//29 32//31 31//32
f 1//1 3//4 5//6 7//8 9//10 11//12 13//14 15//16 17//18 19//20 21//22 23//24 25//26 27//28 29//30 31//32
